<svg width="24" height="24" viewBox="0 0 24 24" fill="none" xmlns="http://www.w3.org/2000/svg">
<path d="M20.25 4.125H3.75002C3.25274 4.125 2.77582 4.32254 2.42419 4.67417C2.07256 5.02581 1.87502 5.50272 1.87502 6V21C1.87352 21.3571 1.97494 21.707 2.16714 22.0079C2.35934 22.3089 2.63418 22.5481 2.95877 22.6969C3.20789 22.8136 3.47957 22.8744 3.7547 22.875C4.19499 22.8739 4.62072 22.7172 4.95658 22.4325L4.96783 22.4222L7.91908 19.875H20.25C20.7473 19.875 21.2242 19.6775 21.5758 19.3258C21.9275 18.9742 22.125 18.4973 22.125 18V6C22.125 5.50272 21.9275 5.02581 21.5758 4.67417C21.2242 4.32254 20.7473 4.125 20.25 4.125ZM19.875 17.625H7.50002C7.23 17.6245 6.96894 17.7218 6.76502 17.8987L4.12502 20.1778V6.375H19.875V17.625Z" fill="white"/>
</svg>
