<svg width="20" height="21" viewBox="0 0 20 21" fill="none" xmlns="http://www.w3.org/2000/svg">
<path d="M8.08045 2.72552C6.53528 2.72552 5.02481 3.19645 3.74006 4.07874C2.4553 4.96104 1.45395 6.21508 0.862639 7.68228C0.271329 9.14948 0.116616 10.7639 0.418063 12.3215C0.71951 13.8791 1.46358 15.3098 2.55618 16.4328C3.64877 17.5557 5.04083 18.3204 6.5563 18.6303C8.07178 18.9401 9.64261 18.7811 11.0702 18.1733C12.4977 17.5656 13.7179 16.5364 14.5763 15.216C15.4348 13.8956 15.8929 12.3431 15.8929 10.755C15.8907 8.6262 15.0668 6.58522 13.6022 5.0799C12.1376 3.57458 10.1518 2.72786 8.08045 2.72552ZM8.08045 18.1422C6.65889 18.1422 5.26926 17.7089 4.08729 16.8972C2.90531 16.0855 1.98407 14.9318 1.44006 13.582C0.896059 12.2322 0.753722 10.7468 1.03105 9.31388C1.30838 7.88091 1.99293 6.56465 2.99812 5.53153C4.00331 4.49842 5.284 3.79486 6.67824 3.50983C8.07247 3.22479 9.51764 3.37108 10.831 3.9302C12.1443 4.48932 13.2669 5.43615 14.0566 6.65096C14.8464 7.86577 15.2679 9.294 15.2679 10.755C15.2659 12.7136 14.508 14.5913 13.1605 15.9762C11.813 17.3611 9.98606 18.1401 8.08045 18.1422ZM12.7679 10.755C12.7679 10.8402 12.735 10.9219 12.6764 10.9821C12.6178 11.0424 12.5383 11.0762 12.4554 11.0762H8.08045C7.99757 11.0762 7.91808 11.0424 7.85948 10.9821C7.80087 10.9219 7.76795 10.8402 7.76795 10.755V6.25851C7.76795 6.17333 7.80087 6.09164 7.85948 6.0314C7.91808 5.97117 7.99757 5.93733 8.08045 5.93733C8.16333 5.93733 8.24281 5.97117 8.30142 6.0314C8.36002 6.09164 8.39295 6.17333 8.39295 6.25851V10.4339H12.4554C12.5383 10.4339 12.6178 10.4677 12.6764 10.5279C12.735 10.5882 12.7679 10.6699 12.7679 10.755Z" fill="black"/>
</svg>
