<svg width="25" height="25" viewBox="0 0 25 25" fill="none" xmlns="http://www.w3.org/2000/svg">
<path d="M21.875 17.7083V8.33332H7.29163V17.7083H21.875ZM21.875 3.12499C22.4275 3.12499 22.9574 3.34448 23.3481 3.73518C23.7388 4.12588 23.9583 4.65579 23.9583 5.20832V17.7083C23.9583 18.2609 23.7388 18.7908 23.3481 19.1815C22.9574 19.5722 22.4275 19.7917 21.875 19.7917H7.29163C6.73909 19.7917 6.20919 19.5722 5.81849 19.1815C5.42779 18.7908 5.20829 18.2609 5.20829 17.7083V5.20832C5.20829 4.65579 5.42779 4.12588 5.81849 3.73518C6.20919 3.34448 6.73909 3.12499 7.29163 3.12499H8.33329V1.04166H10.4166V3.12499H18.75V1.04166H20.8333V3.12499H21.875ZM3.12496 21.875H17.7083V23.9583H3.12496C2.57242 23.9583 2.04252 23.7388 1.65182 23.3481C1.26112 22.9574 1.04163 22.4275 1.04163 21.875V9.37499H3.12496V21.875ZM19.7916 15.625H15.625V11.4583H19.7916V15.625Z" fill="#676D75"/>
</svg>
