<svg width="31" height="27" viewBox="0 0 31 27" fill="none" xmlns="http://www.w3.org/2000/svg">
<g clip-path="url(#clip0_451_2249)">
<path d="M28.0029 9.07031C28.457 9.29004 28.8708 9.55811 29.2441 9.87451C29.6175 10.1909 29.9303 10.5425 30.1826 10.9292C30.4349 11.3159 30.6367 11.7246 30.7881 12.1553C30.9395 12.5859 31.0101 13.0342 31 13.5H29.0625C29.0625 13.043 28.9616 12.6079 28.7598 12.1948C28.5579 11.7817 28.2804 11.4258 27.9272 11.127C27.5741 10.8281 27.1603 10.5864 26.686 10.4019C26.2118 10.2173 25.7122 10.125 25.1875 10.125C24.6527 10.125 24.1532 10.2129 23.689 10.3887C23.2248 10.5645 22.8161 10.8062 22.4629 11.1138C22.1097 11.4214 21.8322 11.7817 21.6304 12.1948C21.4285 12.6079 21.3226 13.043 21.3125 13.5C21.3125 14.2998 21.1056 15.0601 20.6919 15.7808C20.2782 16.5015 19.6979 17.0991 18.9512 17.5737C19.6071 17.8638 20.1974 18.2197 20.7222 18.6416C21.2469 19.0635 21.701 19.5381 22.0845 20.0654C22.4679 20.5928 22.7555 21.1553 22.9473 21.7529C23.139 22.3506 23.2399 22.9746 23.25 23.625H21.3125C21.3125 22.9307 21.1611 22.2759 20.8584 21.6606C20.5557 21.0454 20.1369 20.5093 19.6021 20.0522C19.0672 19.5952 18.4517 19.2349 17.7554 18.9712C17.0591 18.7075 16.3073 18.5713 15.5 18.5625C14.7028 18.5625 13.951 18.6943 13.2446 18.958C12.5382 19.2217 11.9227 19.5864 11.3979 20.0522C10.8732 20.5181 10.4595 21.0542 10.1567 21.6606C9.854 22.2671 9.69759 22.9219 9.6875 23.625H7.75C7.75 22.9834 7.85091 22.3638 8.05273 21.7661C8.25456 21.1685 8.54215 20.606 8.91553 20.0786C9.2889 19.5513 9.73796 19.0767 10.2627 18.6548C10.7874 18.2329 11.3828 17.8726 12.0488 17.5737C11.3122 17.0991 10.737 16.5015 10.3232 15.7808C9.90951 15.0601 9.69759 14.2998 9.6875 13.5C9.6875 13.043 9.58659 12.6079 9.38477 12.1948C9.18294 11.7817 8.90544 11.4258 8.55225 11.127C8.19906 10.8281 7.78532 10.5864 7.31104 10.4019C6.83675 10.2173 6.33724 10.125 5.8125 10.125C5.27767 10.125 4.77816 10.2129 4.31396 10.3887C3.84977 10.5645 3.44108 10.8062 3.08789 11.1138C2.7347 11.4214 2.45719 11.7817 2.25537 12.1948C2.05355 12.6079 1.94759 13.043 1.9375 13.5H0C0 13.043 0.070638 12.5991 0.211914 12.1685C0.35319 11.7378 0.549967 11.3291 0.802246 10.9424C1.05452 10.5557 1.3724 10.2041 1.75586 9.8877C2.13932 9.57129 2.55306 9.29883 2.99707 9.07031C2.66406 8.7627 2.40674 8.40674 2.2251 8.00244C2.04346 7.59814 1.94759 7.18066 1.9375 6.75C1.9375 6.29297 2.03841 5.85791 2.24023 5.44482C2.44206 5.03174 2.71956 4.67578 3.07275 4.37695C3.42594 4.07813 3.83464 3.83643 4.29883 3.65186C4.76302 3.46729 5.26758 3.375 5.8125 3.375C6.33724 3.375 6.83675 3.46289 7.31104 3.63867C7.78532 3.81445 8.19401 4.05615 8.53711 4.36377C8.88021 4.67139 9.15771 5.03174 9.36963 5.44482C9.58154 5.85791 9.6875 6.29297 9.6875 6.75C9.6875 7.18066 9.59668 7.59814 9.41504 8.00244C9.2334 8.40674 8.97103 8.7627 8.62793 9.07031C9.4554 9.46582 10.1315 10.0107 10.6562 10.7051C11.2012 10.002 11.8975 9.44824 12.7451 9.04395C13.5928 8.63965 14.5111 8.4375 15.5 8.4375C16.4788 8.4375 17.3921 8.63965 18.2397 9.04395C19.0874 9.44824 19.7887 10.002 20.3438 10.7051C20.8685 10.0107 21.5446 9.46582 22.3721 9.07031C22.0391 8.7627 21.7817 8.40674 21.6001 8.00244C21.4185 7.59814 21.3226 7.18066 21.3125 6.75C21.3125 6.29297 21.4134 5.85791 21.6152 5.44482C21.8171 5.03174 22.0946 4.67578 22.4478 4.37695C22.8009 4.07813 23.2096 3.83643 23.6738 3.65186C24.138 3.46729 24.6426 3.375 25.1875 3.375C25.7122 3.375 26.2118 3.46289 26.686 3.63867C27.1603 3.81445 27.569 4.05615 27.9121 4.36377C28.2552 4.67139 28.5327 5.03174 28.7446 5.44482C28.9565 5.85791 29.0625 6.29297 29.0625 6.75C29.0625 7.18066 28.9717 7.59814 28.79 8.00244C28.6084 8.40674 28.346 8.7627 28.0029 9.07031ZM3.875 6.75C3.875 6.9873 3.92546 7.20703 4.02637 7.40918C4.12728 7.61133 4.26351 7.78711 4.43506 7.93652C4.60661 8.08594 4.81348 8.20898 5.05566 8.30566C5.29785 8.40234 5.55013 8.44629 5.8125 8.4375C6.08496 8.4375 6.33724 8.39355 6.56934 8.30566C6.80143 8.21777 7.00326 8.09912 7.1748 7.94971C7.34635 7.80029 7.48763 7.62012 7.59863 7.40918C7.70964 7.19824 7.76009 6.97852 7.75 6.75C7.75 6.5127 7.69954 6.29297 7.59863 6.09082C7.49772 5.88867 7.36149 5.71289 7.18994 5.56348C7.01839 5.41406 6.81152 5.29102 6.56934 5.19434C6.32715 5.09766 6.07487 5.05371 5.8125 5.0625C5.54004 5.0625 5.28776 5.10645 5.05566 5.19434C4.82357 5.28223 4.62174 5.40088 4.4502 5.55029C4.27865 5.69971 4.13737 5.87988 4.02637 6.09082C3.91536 6.30176 3.86491 6.52148 3.875 6.75ZM15.5 16.875C16.0247 16.875 16.5243 16.7871 16.9985 16.6113C17.4728 16.4355 17.8815 16.1938 18.2246 15.8862C18.5677 15.5786 18.8452 15.2227 19.0571 14.8184C19.269 14.4141 19.375 13.9746 19.375 13.5C19.375 13.043 19.2741 12.6079 19.0723 12.1948C18.8704 11.7817 18.5929 11.4258 18.2397 11.127C17.8866 10.8281 17.4728 10.5864 16.9985 10.4019C16.5243 10.2173 16.0247 10.125 15.5 10.125C14.9652 10.125 14.4657 10.2129 14.0015 10.3887C13.5373 10.5645 13.1286 10.8062 12.7754 11.1138C12.4222 11.4214 12.1447 11.7817 11.9429 12.1948C11.741 12.6079 11.6351 13.043 11.625 13.5C11.625 13.9658 11.7259 14.4009 11.9277 14.8052C12.1296 15.2095 12.4071 15.5654 12.7603 15.873C13.1134 16.1807 13.5221 16.4224 13.9863 16.5981C14.4505 16.7739 14.9551 16.8662 15.5 16.875ZM23.25 6.75C23.25 6.9873 23.3005 7.20703 23.4014 7.40918C23.5023 7.61133 23.6385 7.78711 23.8101 7.93652C23.9816 8.08594 24.1885 8.20898 24.4307 8.30566C24.6729 8.40234 24.9251 8.44629 25.1875 8.4375C25.46 8.4375 25.7122 8.39355 25.9443 8.30566C26.1764 8.21777 26.3783 8.09912 26.5498 7.94971C26.7214 7.80029 26.8626 7.62012 26.9736 7.40918C27.0846 7.19824 27.1351 6.97852 27.125 6.75C27.125 6.5127 27.0745 6.29297 26.9736 6.09082C26.8727 5.88867 26.7365 5.71289 26.5649 5.56348C26.3934 5.41406 26.1865 5.29102 25.9443 5.19434C25.7021 5.09766 25.4499 5.05371 25.1875 5.0625C24.915 5.0625 24.6628 5.10645 24.4307 5.19434C24.1986 5.28223 23.9967 5.40088 23.8252 5.55029C23.6536 5.69971 23.5124 5.87988 23.4014 6.09082C23.2904 6.30176 23.2399 6.52148 23.25 6.75Z" fill="#676D75"/>
</g>
<defs>
<clipPath id="clip0_451_2249">
<rect width="31" height="27" fill="white"/>
</clipPath>
</defs>
</svg>
