<svg width="82" height="78" viewBox="0 0 82 78" fill="none" xmlns="http://www.w3.org/2000/svg">
<rect x="9" y="-2" width="64" height="64" rx="32" fill="white"/>
<rect x="9" y="-2" width="64" height="64" rx="32" stroke="#1D1F24" stroke-width="4"/>
<g clip-path="url(#clip0_383_2240)">
<path d="M41 14C36.7725 14.0513 32.7325 15.7535 29.743 18.743C26.7535 21.7325 25.0513 25.7725 25 30C25.0513 34.2275 26.7535 38.2675 29.743 41.257C32.7325 44.2465 36.7725 45.9487 41 46C45.2275 45.9487 49.2675 44.2465 52.257 41.257C55.2465 38.2675 56.9487 34.2275 57 30C56.9487 25.7725 55.2465 21.7325 52.257 18.743C49.2675 15.7535 45.2275 14.0513 41 14ZM50.1429 31.1429H42.1429V39.1429H39.8571V31.1429H31.8571V28.8571H39.8571V20.8571H42.1429V28.8571H50.1429V31.1429Z" fill="black"/>
</g>
<defs>
<clipPath id="clip0_383_2240">
<rect width="32" height="32" fill="white" transform="translate(25 14)"/>
</clipPath>
</defs>
</svg>
