<svg width="75" height="46" viewBox="0 0 75 46" fill="none" xmlns="http://www.w3.org/2000/svg">
<path d="M28.5834 22C28.0334 22 27.5627 21.8043 27.1714 21.413C26.78 21.0217 26.584 20.5507 26.5834 20V8C26.5834 7.45 26.7794 6.97933 27.1714 6.588C27.5634 6.19667 28.034 6.00067 28.5834 6H34.5834L36.5834 8H44.5834C45.1334 8 45.6044 8.196 45.9964 8.588C46.3884 8.98 46.584 9.45067 46.5834 10V20C46.5834 20.55 46.3877 21.021 45.9964 21.413C45.605 21.805 45.134 22.0007 44.5834 22H28.5834ZM28.5834 20H44.5834V10H35.7584L33.7584 8H28.5834V20Z" fill="#676D75"/>
<path d="M5.95137 40.14H2.30337L1.63137 42H0.479374L3.50337 33.684H4.76337L7.77537 42H6.62337L5.95137 40.14ZM5.63937 39.252L4.12737 35.028L2.61537 39.252H5.63937ZM10.1853 36.636C10.4013 36.26 10.7213 35.948 11.1453 35.7C11.5773 35.444 12.0773 35.316 12.6453 35.316C13.2293 35.316 13.7573 35.456 14.2293 35.736C14.7093 36.016 15.0853 36.412 15.3573 36.924C15.6293 37.428 15.7653 38.016 15.7653 38.688C15.7653 39.352 15.6293 39.944 15.3573 40.464C15.0853 40.984 14.7093 41.388 14.2293 41.676C13.7573 41.964 13.2293 42.108 12.6453 42.108C12.0853 42.108 11.5893 41.984 11.1573 41.736C10.7333 41.48 10.4093 41.164 10.1853 40.788V45.12H9.09331V35.424H10.1853V36.636ZM14.6493 38.688C14.6493 38.192 14.5493 37.76 14.3493 37.392C14.1493 37.024 13.8773 36.744 13.5333 36.552C13.1973 36.36 12.8253 36.264 12.4173 36.264C12.0173 36.264 11.6453 36.364 11.3013 36.564C10.9653 36.756 10.6933 37.04 10.4853 37.416C10.2853 37.784 10.1853 38.212 10.1853 38.7C10.1853 39.196 10.2853 39.632 10.4853 40.008C10.6933 40.376 10.9653 40.66 11.3013 40.86C11.6453 41.052 12.0173 41.148 12.4173 41.148C12.8253 41.148 13.1973 41.052 13.5333 40.86C13.8773 40.66 14.1493 40.376 14.3493 40.008C14.5493 39.632 14.6493 39.192 14.6493 38.688ZM18.2947 36.636C18.5107 36.26 18.8307 35.948 19.2547 35.7C19.6867 35.444 20.1867 35.316 20.7547 35.316C21.3387 35.316 21.8667 35.456 22.3387 35.736C22.8187 36.016 23.1947 36.412 23.4667 36.924C23.7387 37.428 23.8747 38.016 23.8747 38.688C23.8747 39.352 23.7387 39.944 23.4667 40.464C23.1947 40.984 22.8187 41.388 22.3387 41.676C21.8667 41.964 21.3387 42.108 20.7547 42.108C20.1947 42.108 19.6987 41.984 19.2667 41.736C18.8427 41.48 18.5187 41.164 18.2947 40.788V45.12H17.2027V35.424H18.2947V36.636ZM22.7587 38.688C22.7587 38.192 22.6587 37.76 22.4587 37.392C22.2587 37.024 21.9867 36.744 21.6427 36.552C21.3067 36.36 20.9347 36.264 20.5267 36.264C20.1267 36.264 19.7547 36.364 19.4107 36.564C19.0747 36.756 18.8027 37.04 18.5947 37.416C18.3947 37.784 18.2947 38.212 18.2947 38.7C18.2947 39.196 18.3947 39.632 18.5947 40.008C18.8027 40.376 19.0747 40.66 19.4107 40.86C19.7547 41.052 20.1267 41.148 20.5267 41.148C20.9347 41.148 21.3067 41.052 21.6427 40.86C21.9867 40.66 22.2587 40.376 22.4587 40.008C22.6587 39.632 22.7587 39.192 22.7587 38.688ZM26.4041 33.12V42H25.3121V33.12H26.4041ZM28.8292 34.356C28.6212 34.356 28.4452 34.284 28.3012 34.14C28.1572 33.996 28.0852 33.82 28.0852 33.612C28.0852 33.404 28.1572 33.228 28.3012 33.084C28.4452 32.94 28.6212 32.868 28.8292 32.868C29.0292 32.868 29.1972 32.94 29.3332 33.084C29.4772 33.228 29.5492 33.404 29.5492 33.612C29.5492 33.82 29.4772 33.996 29.3332 34.14C29.1972 34.284 29.0292 34.356 28.8292 34.356ZM29.3572 35.424V42H28.2652V35.424H29.3572ZM30.8103 38.7C30.8103 38.02 30.9463 37.428 31.2183 36.924C31.4903 36.412 31.8663 36.016 32.3463 35.736C32.8343 35.456 33.3903 35.316 34.0143 35.316C34.8223 35.316 35.4863 35.512 36.0063 35.904C36.5343 36.296 36.8823 36.84 37.0503 37.536H35.8743C35.7623 37.136 35.5423 36.82 35.2143 36.588C34.8943 36.356 34.4943 36.24 34.0143 36.24C33.3903 36.24 32.8863 36.456 32.5023 36.888C32.1183 37.312 31.9263 37.916 31.9263 38.7C31.9263 39.492 32.1183 40.104 32.5023 40.536C32.8863 40.968 33.3903 41.184 34.0143 41.184C34.4943 41.184 34.8943 41.072 35.2143 40.848C35.5343 40.624 35.7543 40.304 35.8743 39.888H37.0503C36.8743 40.56 36.5223 41.1 35.9943 41.508C35.4663 41.908 34.8063 42.108 34.0143 42.108C33.3903 42.108 32.8343 41.968 32.3463 41.688C31.8663 41.408 31.4903 41.012 31.2183 40.5C30.9463 39.988 30.8103 39.388 30.8103 38.7ZM38.0994 38.688C38.0994 38.016 38.2354 37.428 38.5074 36.924C38.7794 36.412 39.1514 36.016 39.6234 35.736C40.1034 35.456 40.6354 35.316 41.2194 35.316C41.7954 35.316 42.2954 35.44 42.7194 35.688C43.1434 35.936 43.4594 36.248 43.6674 36.624V35.424H44.7714V42H43.6674V40.776C43.4514 41.16 43.1274 41.48 42.6954 41.736C42.2714 41.984 41.7754 42.108 41.2074 42.108C40.6234 42.108 40.0954 41.964 39.6234 41.676C39.1514 41.388 38.7794 40.984 38.5074 40.464C38.2354 39.944 38.0994 39.352 38.0994 38.688ZM43.6674 38.7C43.6674 38.204 43.5674 37.772 43.3674 37.404C43.1674 37.036 42.8954 36.756 42.5514 36.564C42.2154 36.364 41.8434 36.264 41.4354 36.264C41.0274 36.264 40.6554 36.36 40.3194 36.552C39.9834 36.744 39.7154 37.024 39.5154 37.392C39.3154 37.76 39.2154 38.192 39.2154 38.688C39.2154 39.192 39.3154 39.632 39.5154 40.008C39.7154 40.376 39.9834 40.66 40.3194 40.86C40.6554 41.052 41.0274 41.148 41.4354 41.148C41.8434 41.148 42.2154 41.052 42.5514 40.86C42.8954 40.66 43.1674 40.376 43.3674 40.008C43.5674 39.632 43.6674 39.196 43.6674 38.7ZM47.9487 36.324V40.2C47.9487 40.52 48.0167 40.748 48.1527 40.884C48.2887 41.012 48.5247 41.076 48.8607 41.076H49.6647V42H48.6807C48.0727 42 47.6167 41.86 47.3127 41.58C47.0087 41.3 46.8567 40.84 46.8567 40.2V36.324H46.0047V35.424H46.8567V33.768H47.9487V35.424H49.6647V36.324H47.9487ZM51.5518 34.356C51.3438 34.356 51.1678 34.284 51.0238 34.14C50.8798 33.996 50.8078 33.82 50.8078 33.612C50.8078 33.404 50.8798 33.228 51.0238 33.084C51.1678 32.94 51.3438 32.868 51.5518 32.868C51.7518 32.868 51.9198 32.94 52.0558 33.084C52.1998 33.228 52.2718 33.404 52.2718 33.612C52.2718 33.82 52.1998 33.996 52.0558 34.14C51.9198 34.284 51.7518 34.356 51.5518 34.356ZM52.0798 35.424V42H50.9878V35.424H52.0798ZM56.809 42.108C56.193 42.108 55.633 41.968 55.129 41.688C54.633 41.408 54.241 41.012 53.953 40.5C53.673 39.98 53.533 39.38 53.533 38.7C53.533 38.028 53.677 37.436 53.965 36.924C54.261 36.404 54.661 36.008 55.165 35.736C55.669 35.456 56.233 35.316 56.857 35.316C57.481 35.316 58.045 35.456 58.549 35.736C59.053 36.008 59.449 36.4 59.737 36.912C60.033 37.424 60.181 38.02 60.181 38.7C60.181 39.38 60.029 39.98 59.725 40.5C59.429 41.012 59.025 41.408 58.513 41.688C58.001 41.968 57.433 42.108 56.809 42.108ZM56.809 41.148C57.201 41.148 57.569 41.056 57.913 40.872C58.257 40.688 58.533 40.412 58.741 40.044C58.957 39.676 59.065 39.228 59.065 38.7C59.065 38.172 58.961 37.724 58.753 37.356C58.545 36.988 58.273 36.716 57.937 36.54C57.601 36.356 57.237 36.264 56.845 36.264C56.445 36.264 56.077 36.356 55.741 36.54C55.413 36.716 55.149 36.988 54.949 37.356C54.749 37.724 54.649 38.172 54.649 38.7C54.649 39.236 54.745 39.688 54.937 40.056C55.137 40.424 55.401 40.7 55.729 40.884C56.057 41.06 56.417 41.148 56.809 41.148ZM64.8207 35.304C65.6207 35.304 66.2687 35.548 66.7647 36.036C67.2607 36.516 67.5087 37.212 67.5087 38.124V42H66.4287V38.28C66.4287 37.624 66.2647 37.124 65.9367 36.78C65.6087 36.428 65.1607 36.252 64.5927 36.252C64.0167 36.252 63.5567 36.432 63.2127 36.792C62.8767 37.152 62.7087 37.676 62.7087 38.364V42H61.6167V35.424H62.7087V36.36C62.9247 36.024 63.2167 35.764 63.5847 35.58C63.9607 35.396 64.3727 35.304 64.8207 35.304ZM71.6205 42.108C71.1165 42.108 70.6645 42.024 70.2645 41.856C69.8645 41.68 69.5485 41.44 69.3165 41.136C69.0845 40.824 68.9565 40.468 68.9325 40.068H70.0605C70.0925 40.396 70.2445 40.664 70.5165 40.872C70.7965 41.08 71.1605 41.184 71.6085 41.184C72.0245 41.184 72.3525 41.092 72.5925 40.908C72.8325 40.724 72.9525 40.492 72.9525 40.212C72.9525 39.924 72.8245 39.712 72.5685 39.576C72.3125 39.432 71.9165 39.292 71.3805 39.156C70.8925 39.028 70.4925 38.9 70.1805 38.772C69.8765 38.636 69.6125 38.44 69.3885 38.184C69.1725 37.92 69.0645 37.576 69.0645 37.152C69.0645 36.816 69.1645 36.508 69.3645 36.228C69.5645 35.948 69.8485 35.728 70.2165 35.568C70.5845 35.4 71.0045 35.316 71.4765 35.316C72.2045 35.316 72.7925 35.5 73.2405 35.868C73.6885 36.236 73.9285 36.74 73.9605 37.38H72.8685C72.8445 37.036 72.7045 36.76 72.4485 36.552C72.2005 36.344 71.8645 36.24 71.4405 36.24C71.0485 36.24 70.7365 36.324 70.5045 36.492C70.2725 36.66 70.1565 36.88 70.1565 37.152C70.1565 37.368 70.2245 37.548 70.3605 37.692C70.5045 37.828 70.6805 37.94 70.8885 38.028C71.1045 38.108 71.4005 38.2 71.7765 38.304C72.2485 38.432 72.6325 38.56 72.9285 38.688C73.2245 38.808 73.4765 38.992 73.6845 39.24C73.9005 39.488 74.0125 39.812 74.0205 40.212C74.0205 40.572 73.9205 40.896 73.7205 41.184C73.5205 41.472 73.2365 41.7 72.8685 41.868C72.5085 42.028 72.0925 42.108 71.6205 42.108Z" fill="#676D75"/>
</svg>
