<svg width="82" height="46" viewBox="0 0 82 46" fill="none" xmlns="http://www.w3.org/2000/svg">
<path fill-rule="evenodd" clip-rule="evenodd" d="M39.986 1.21065C40.3471 0.929784 40.8528 0.929784 41.2139 1.21065L50.2139 8.21065C50.4575 8.4001 50.6 8.69141 50.6 9V20C50.6 20.7957 50.2839 21.5587 49.7213 22.1213C49.1587 22.6839 48.3956 23 47.6 23H33.6C32.8043 23 32.0413 22.6839 31.4787 22.1213C30.916 21.5587 30.6 20.7957 30.6 20V9C30.6 8.69141 30.7424 8.4001 30.986 8.21065L39.986 1.21065ZM32.6 9.48908V20C32.6 20.2652 32.7053 20.5196 32.8929 20.7071C33.0804 20.8946 33.3348 21 33.6 21H47.6C47.8652 21 48.1195 20.8946 48.3071 20.7071C48.4946 20.5196 48.6 20.2652 48.6 20V9.48908L40.6 3.26686L32.6 9.48908Z" fill="white"/>
<path fill-rule="evenodd" clip-rule="evenodd" d="M36.6 12C36.6 11.4477 37.0477 11 37.6 11H43.6C44.1523 11 44.6 11.4477 44.6 12V22C44.6 22.5523 44.1523 23 43.6 23C43.0477 23 42.6 22.5523 42.6 22V13H38.6V22C38.6 22.5523 38.1523 23 37.6 23C37.0477 23 36.6 22.5523 36.6 22V12Z" fill="white"/>
<path d="M30.16 33.66V42H28.792V38.352H24.868V42H23.5V33.66H24.868V37.236H28.792V33.66H30.16ZM34.8289 42.108C34.2049 42.108 33.6409 41.968 33.1369 41.688C32.6329 41.4 32.2369 41 31.9489 40.488C31.6609 39.968 31.5169 39.368 31.5169 38.688C31.5169 38.016 31.6649 37.42 31.9609 36.9C32.2569 36.38 32.6609 35.98 33.1729 35.7C33.6849 35.42 34.2569 35.28 34.8889 35.28C35.5209 35.28 36.0929 35.42 36.6049 35.7C37.1169 35.98 37.5209 36.38 37.8169 36.9C38.1129 37.42 38.2609 38.016 38.2609 38.688C38.2609 39.36 38.1089 39.956 37.8049 40.476C37.5009 40.996 37.0849 41.4 36.5569 41.688C36.0369 41.968 35.4609 42.108 34.8289 42.108ZM34.8289 40.92C35.1809 40.92 35.5089 40.836 35.8129 40.668C36.1249 40.5 36.3769 40.248 36.5689 39.912C36.7609 39.576 36.8569 39.168 36.8569 38.688C36.8569 38.208 36.7649 37.804 36.5809 37.476C36.3969 37.14 36.1529 36.888 35.8489 36.72C35.5449 36.552 35.2169 36.468 34.8649 36.468C34.5129 36.468 34.1849 36.552 33.8809 36.72C33.5849 36.888 33.3489 37.14 33.1729 37.476C32.9969 37.804 32.9089 38.208 32.9089 38.688C32.9089 39.4 33.0889 39.952 33.4489 40.344C33.8169 40.728 34.2769 40.92 34.8289 40.92ZM47.6173 35.28C48.1373 35.28 48.6013 35.388 49.0093 35.604C49.4253 35.82 49.7493 36.14 49.9813 36.564C50.2213 36.988 50.3413 37.5 50.3413 38.1V42H48.9853V38.304C48.9853 37.712 48.8373 37.26 48.5413 36.948C48.2453 36.628 47.8413 36.468 47.3293 36.468C46.8173 36.468 46.4093 36.628 46.1053 36.948C45.8093 37.26 45.6613 37.712 45.6613 38.304V42H44.3053V38.304C44.3053 37.712 44.1573 37.26 43.8613 36.948C43.5653 36.628 43.1613 36.468 42.6493 36.468C42.1373 36.468 41.7293 36.628 41.4253 36.948C41.1293 37.26 40.9813 37.712 40.9813 38.304V42H39.6133V35.388H40.9813V36.144C41.2053 35.872 41.4893 35.66 41.8333 35.508C42.1773 35.356 42.5453 35.28 42.9373 35.28C43.4653 35.28 43.9373 35.392 44.3533 35.616C44.7693 35.84 45.0893 36.164 45.3133 36.588C45.5133 36.188 45.8253 35.872 46.2493 35.64C46.6733 35.4 47.1293 35.28 47.6173 35.28ZM58.142 38.532C58.142 38.78 58.126 39.004 58.094 39.204H53.042C53.082 39.732 53.278 40.156 53.63 40.476C53.982 40.796 54.414 40.956 54.926 40.956C55.662 40.956 56.182 40.648 56.486 40.032H57.962C57.762 40.64 57.398 41.14 56.87 41.532C56.35 41.916 55.702 42.108 54.926 42.108C54.294 42.108 53.726 41.968 53.222 41.688C52.726 41.4 52.334 41 52.046 40.488C51.766 39.968 51.626 39.368 51.626 38.688C51.626 38.008 51.762 37.412 52.034 36.9C52.314 36.38 52.702 35.98 53.198 35.7C53.702 35.42 54.278 35.28 54.926 35.28C55.55 35.28 56.106 35.416 56.594 35.688C57.082 35.96 57.462 36.344 57.734 36.84C58.006 37.328 58.142 37.892 58.142 38.532ZM56.714 38.1C56.706 37.596 56.526 37.192 56.174 36.888C55.822 36.584 55.386 36.432 54.866 36.432C54.394 36.432 53.99 36.584 53.654 36.888C53.318 37.184 53.118 37.588 53.054 38.1H56.714Z" fill="white"/>
</svg>
