<svg width="173" height="40" viewBox="0 0 173 40" fill="none" xmlns="http://www.w3.org/2000/svg">
<path d="M0.5 20C0.5 9.23045 9.23045 0.5 20 0.5H153C163.77 0.5 172.5 9.23045 172.5 20C172.5 30.7696 163.77 39.5 153 39.5H20C9.23045 39.5 0.5 30.7696 0.5 20Z" fill="white"/>
<path d="M0.5 20C0.5 9.23045 9.23045 0.5 20 0.5H153C163.77 0.5 172.5 9.23045 172.5 20C172.5 30.7696 163.77 39.5 153 39.5H20C9.23045 39.5 0.5 30.7696 0.5 20Z" stroke="#747775"/>
<path fill-rule="evenodd" clip-rule="evenodd" d="M29.64 20.2046C29.64 19.5664 29.5827 18.9527 29.4764 18.3636H21V21.845H25.8436C25.635 22.97 25.0009 23.9232 24.0477 24.5614V26.8196H26.9564C28.6582 25.2527 29.64 22.9455 29.64 20.2046Z" fill="#4285F4"/>
<path fill-rule="evenodd" clip-rule="evenodd" d="M21 29C23.43 29 25.4673 28.1941 26.9564 26.8195L24.0477 24.5614C23.2418 25.1014 22.2109 25.4204 21 25.4204C18.6559 25.4204 16.6718 23.8373 15.9641 21.71H12.9573V24.0418C14.4382 26.9832 17.4818 29 21 29Z" fill="#34A853"/>
<path fill-rule="evenodd" clip-rule="evenodd" d="M15.9641 21.71C15.7841 21.17 15.6818 20.5932 15.6818 20C15.6818 19.4068 15.7841 18.83 15.9641 18.29V15.9582H12.9573C12.3477 17.1732 12 18.5477 12 20C12 21.4523 12.3477 22.8268 12.9573 24.0418L15.9641 21.71Z" fill="#FBBC05"/>
<path fill-rule="evenodd" clip-rule="evenodd" d="M21 14.5795C22.3214 14.5795 23.5077 15.0336 24.4405 15.9255L27.0218 13.3441C25.4632 11.8918 23.4259 11 21 11C17.4818 11 14.4382 13.0168 12.9573 15.9582L15.9641 18.29C16.6718 16.1627 18.6559 14.5795 21 14.5795Z" fill="#EA4335"/>
<path d="M46.248 22.4365C46.248 22.2314 46.2161 22.0492 46.1523 21.8896C46.0931 21.7301 45.986 21.5843 45.8311 21.4521C45.6761 21.32 45.4574 21.1924 45.1748 21.0693C44.8968 20.9417 44.5413 20.8118 44.1084 20.6797C43.6344 20.5339 43.1969 20.3721 42.7959 20.1943C42.3994 20.012 42.0531 19.8024 41.7568 19.5654C41.4606 19.3239 41.2305 19.0482 41.0664 18.7383C40.9023 18.4238 40.8203 18.0615 40.8203 17.6514C40.8203 17.2458 40.9046 16.8766 41.0732 16.5439C41.2464 16.2113 41.4902 15.9242 41.8047 15.6826C42.1237 15.4365 42.4997 15.2474 42.9326 15.1152C43.3656 14.9785 43.8441 14.9102 44.3682 14.9102C45.1064 14.9102 45.7422 15.0469 46.2754 15.3203C46.8132 15.5938 47.2256 15.9606 47.5127 16.4209C47.8044 16.8812 47.9502 17.3893 47.9502 17.9453H46.248C46.248 17.6172 46.1774 17.3278 46.0361 17.0771C45.8994 16.8219 45.6898 16.6214 45.4072 16.4756C45.1292 16.3298 44.776 16.2568 44.3477 16.2568C43.9421 16.2568 43.6048 16.3184 43.3359 16.4414C43.0671 16.5645 42.8665 16.7308 42.7344 16.9404C42.6022 17.1501 42.5361 17.387 42.5361 17.6514C42.5361 17.8382 42.5794 18.0091 42.666 18.1641C42.7526 18.3145 42.8848 18.4557 43.0625 18.5879C43.2402 18.7155 43.4635 18.8363 43.7324 18.9502C44.0013 19.0641 44.318 19.1735 44.6826 19.2783C45.234 19.4424 45.7148 19.6247 46.125 19.8252C46.5352 20.0212 46.877 20.2445 47.1504 20.4951C47.4238 20.7458 47.6289 21.0306 47.7656 21.3496C47.9023 21.6641 47.9707 22.0218 47.9707 22.4229C47.9707 22.8421 47.8864 23.2204 47.7178 23.5576C47.5492 23.8903 47.3076 24.1751 46.9932 24.4121C46.6833 24.6445 46.3096 24.8245 45.8721 24.9521C45.4391 25.0752 44.9561 25.1367 44.4229 25.1367C43.9443 25.1367 43.4727 25.0729 43.0078 24.9453C42.5475 24.8177 42.1283 24.624 41.75 24.3643C41.3717 24.0999 41.071 23.7718 40.8477 23.3799C40.6243 22.9834 40.5127 22.5208 40.5127 21.9922H42.2285C42.2285 22.3158 42.2832 22.5915 42.3926 22.8193C42.5065 23.0472 42.6637 23.234 42.8643 23.3799C43.0648 23.5212 43.2972 23.626 43.5615 23.6943C43.8304 23.7627 44.1175 23.7969 44.4229 23.7969C44.8239 23.7969 45.1589 23.7399 45.4277 23.626C45.7012 23.512 45.9062 23.3525 46.043 23.1475C46.1797 22.9424 46.248 22.7054 46.248 22.4365ZM51.0879 17.6035V25H49.4336V17.6035H51.0879ZM49.3242 15.6621C49.3242 15.4115 49.4062 15.2041 49.5703 15.04C49.7389 14.8714 49.9714 14.7871 50.2676 14.7871C50.5592 14.7871 50.7894 14.8714 50.958 15.04C51.1266 15.2041 51.2109 15.4115 51.2109 15.6621C51.2109 15.9082 51.1266 16.1133 50.958 16.2773C50.7894 16.4414 50.5592 16.5234 50.2676 16.5234C49.9714 16.5234 49.7389 16.4414 49.5703 16.2773C49.4062 16.1133 49.3242 15.9082 49.3242 15.6621ZM57.6299 17.6035H59.127V24.7949C59.127 25.4603 58.9857 26.0254 58.7031 26.4902C58.4206 26.9551 58.0264 27.3083 57.5205 27.5498C57.0146 27.7959 56.429 27.9189 55.7637 27.9189C55.4811 27.9189 55.1667 27.8779 54.8203 27.7959C54.4785 27.7139 54.1458 27.5817 53.8223 27.3994C53.5033 27.2217 53.2367 26.987 53.0225 26.6953L53.7949 25.7246C54.0592 26.0391 54.3509 26.2692 54.6699 26.415C54.9889 26.5609 55.3239 26.6338 55.6748 26.6338C56.0531 26.6338 56.3743 26.5632 56.6387 26.4219C56.9076 26.2852 57.1149 26.0824 57.2607 25.8135C57.4066 25.5446 57.4795 25.2165 57.4795 24.8291V19.2783L57.6299 17.6035ZM52.6055 21.3838V21.2402C52.6055 20.6797 52.6738 20.1693 52.8105 19.709C52.9473 19.2441 53.1432 18.8454 53.3984 18.5127C53.6536 18.1755 53.9635 17.918 54.3281 17.7402C54.6927 17.5579 55.1051 17.4668 55.5654 17.4668C56.0439 17.4668 56.4518 17.5534 56.7891 17.7266C57.1309 17.8997 57.4157 18.1481 57.6436 18.4717C57.8714 18.7907 58.0492 19.1735 58.1768 19.6201C58.3089 20.0622 58.4069 20.5544 58.4707 21.0967V21.5547C58.4115 22.0833 58.3112 22.5664 58.1699 23.0039C58.0286 23.4414 57.8418 23.8197 57.6094 24.1387C57.377 24.4577 57.0898 24.7038 56.748 24.877C56.4108 25.0501 56.012 25.1367 55.5518 25.1367C55.1006 25.1367 54.6927 25.0433 54.3281 24.8564C53.9681 24.6696 53.6582 24.4076 53.3984 24.0703C53.1432 23.7331 52.9473 23.3366 52.8105 22.8809C52.6738 22.4206 52.6055 21.9215 52.6055 21.3838ZM54.2529 21.2402V21.3838C54.2529 21.721 54.2848 22.0355 54.3486 22.3271C54.417 22.6188 54.5195 22.8763 54.6562 23.0996C54.7975 23.3184 54.9753 23.4915 55.1895 23.6191C55.4082 23.7422 55.6657 23.8037 55.9619 23.8037C56.3493 23.8037 56.666 23.7217 56.9121 23.5576C57.1628 23.3936 57.3542 23.1725 57.4863 22.8945C57.623 22.612 57.7188 22.2975 57.7734 21.9512V20.7139C57.7461 20.445 57.6891 20.1943 57.6025 19.9619C57.5205 19.7295 57.4089 19.5267 57.2676 19.3535C57.1263 19.1758 56.9486 19.0391 56.7344 18.9434C56.5202 18.8431 56.2673 18.793 55.9756 18.793C55.6794 18.793 55.4219 18.8568 55.2031 18.9844C54.9844 19.112 54.8044 19.2874 54.6631 19.5107C54.5264 19.734 54.4238 19.9938 54.3555 20.29C54.2871 20.5863 54.2529 20.903 54.2529 21.2402ZM62.4697 19.1826V25H60.8223V17.6035H62.374L62.4697 19.1826ZM62.1758 21.0283L61.6426 21.0215C61.6471 20.4974 61.7201 20.0166 61.8613 19.5791C62.0072 19.1416 62.2077 18.7656 62.4629 18.4512C62.7227 18.1367 63.0326 17.8952 63.3926 17.7266C63.7526 17.5534 64.1536 17.4668 64.5957 17.4668C64.9512 17.4668 65.2725 17.5169 65.5596 17.6172C65.8512 17.7129 66.0996 17.8701 66.3047 18.0889C66.5143 18.3076 66.6738 18.5924 66.7832 18.9434C66.8926 19.2897 66.9473 19.7158 66.9473 20.2217V25H65.293V20.2148C65.293 19.8594 65.2406 19.5791 65.1357 19.374C65.0355 19.1644 64.8874 19.0163 64.6914 18.9297C64.5 18.8385 64.2607 18.793 63.9736 18.793C63.6911 18.793 63.4382 18.8522 63.2148 18.9707C62.9915 19.0892 62.8024 19.251 62.6475 19.4561C62.4971 19.6611 62.3809 19.8981 62.2988 20.167C62.2168 20.4359 62.1758 20.723 62.1758 21.0283ZM73.8789 17.6035V25H72.2246V17.6035H73.8789ZM72.1152 15.6621C72.1152 15.4115 72.1973 15.2041 72.3613 15.04C72.5299 14.8714 72.7624 14.7871 73.0586 14.7871C73.3503 14.7871 73.5804 14.8714 73.749 15.04C73.9176 15.2041 74.002 15.4115 74.002 15.6621C74.002 15.9082 73.9176 16.1133 73.749 16.2773C73.5804 16.4414 73.3503 16.5234 73.0586 16.5234C72.7624 16.5234 72.5299 16.4414 72.3613 16.2773C72.1973 16.1133 72.1152 15.9082 72.1152 15.6621ZM77.3174 19.1826V25H75.6699V17.6035H77.2217L77.3174 19.1826ZM77.0234 21.0283L76.4902 21.0215C76.4948 20.4974 76.5677 20.0166 76.709 19.5791C76.8548 19.1416 77.0553 18.7656 77.3105 18.4512C77.5703 18.1367 77.8802 17.8952 78.2402 17.7266C78.6003 17.5534 79.0013 17.4668 79.4434 17.4668C79.7988 17.4668 80.1201 17.5169 80.4072 17.6172C80.6989 17.7129 80.9473 17.8701 81.1523 18.0889C81.362 18.3076 81.5215 18.5924 81.6309 18.9434C81.7402 19.2897 81.7949 19.7158 81.7949 20.2217V25H80.1406V20.2148C80.1406 19.8594 80.0882 19.5791 79.9834 19.374C79.8831 19.1644 79.735 19.0163 79.5391 18.9297C79.3477 18.8385 79.1084 18.793 78.8213 18.793C78.5387 18.793 78.2858 18.8522 78.0625 18.9707C77.8392 19.0892 77.6501 19.251 77.4951 19.4561C77.3447 19.6611 77.2285 19.8981 77.1465 20.167C77.0645 20.4359 77.0234 20.723 77.0234 21.0283ZM88.9727 23.3594L90.6816 17.6035H91.7344L91.4473 19.3262L89.7246 25H88.7812L88.9727 23.3594ZM87.9678 17.6035L89.3008 23.3867L89.4102 25H88.3574L86.3545 17.6035H87.9678ZM93.334 23.3184L94.626 17.6035H96.2324L94.2363 25H93.1836L93.334 23.3184ZM91.9121 17.6035L93.6006 23.291L93.8125 25H92.8691L91.126 19.3193L90.8389 17.6035H91.9121ZM99.1172 17.6035V25H97.4629V17.6035H99.1172ZM97.3535 15.6621C97.3535 15.4115 97.4355 15.2041 97.5996 15.04C97.7682 14.8714 98.0007 14.7871 98.2969 14.7871C98.5885 14.7871 98.8187 14.8714 98.9873 15.04C99.1559 15.2041 99.2402 15.4115 99.2402 15.6621C99.2402 15.9082 99.1559 16.1133 98.9873 16.2773C98.8187 16.4414 98.5885 16.5234 98.2969 16.5234C98.0007 16.5234 97.7682 16.4414 97.5996 16.2773C97.4355 16.1133 97.3535 15.9082 97.3535 15.6621ZM104.312 17.6035V18.8066H100.143V17.6035H104.312ZM101.346 15.792H102.993V22.9561C102.993 23.1839 103.025 23.3594 103.089 23.4824C103.157 23.6009 103.251 23.6807 103.369 23.7217C103.488 23.7627 103.627 23.7832 103.786 23.7832C103.9 23.7832 104.009 23.7764 104.114 23.7627C104.219 23.749 104.303 23.7354 104.367 23.7217L104.374 24.9795C104.237 25.0205 104.078 25.057 103.896 25.0889C103.718 25.1208 103.513 25.1367 103.28 25.1367C102.902 25.1367 102.567 25.0706 102.275 24.9385C101.984 24.8018 101.756 24.5807 101.592 24.2754C101.428 23.9701 101.346 23.5645 101.346 23.0586V15.792ZM107.211 14.5V25H105.57V14.5H107.211ZM106.924 21.0283L106.391 21.0215C106.395 20.5111 106.466 20.0394 106.603 19.6064C106.744 19.1735 106.94 18.7975 107.19 18.4785C107.446 18.1549 107.751 17.9066 108.106 17.7334C108.462 17.5557 108.856 17.4668 109.289 17.4668C109.654 17.4668 109.982 17.5169 110.273 17.6172C110.57 17.7174 110.825 17.8792 111.039 18.1025C111.253 18.3213 111.415 18.6084 111.524 18.9639C111.638 19.3148 111.695 19.7432 111.695 20.249V25H110.041V20.2354C110.041 19.8799 109.989 19.5973 109.884 19.3877C109.784 19.1781 109.635 19.0277 109.439 18.9365C109.243 18.8408 109.004 18.793 108.722 18.793C108.425 18.793 108.163 18.8522 107.936 18.9707C107.712 19.0892 107.525 19.251 107.375 19.4561C107.225 19.6611 107.111 19.8981 107.033 20.167C106.96 20.4359 106.924 20.723 106.924 21.0283ZM124.656 19.9141V23.7148C124.515 23.9017 124.294 24.1068 123.993 24.3301C123.697 24.5488 123.303 24.738 122.811 24.8975C122.318 25.057 121.705 25.1367 120.972 25.1367C120.347 25.1367 119.775 25.0319 119.256 24.8223C118.736 24.6081 118.287 24.2959 117.909 23.8857C117.535 23.4756 117.246 22.9766 117.041 22.3887C116.836 21.7962 116.733 21.1217 116.733 20.3652V19.6748C116.733 18.9229 116.827 18.2529 117.014 17.665C117.205 17.0726 117.479 16.5713 117.834 16.1611C118.189 15.751 118.618 15.4411 119.119 15.2314C119.625 15.0173 120.197 14.9102 120.835 14.9102C121.651 14.9102 122.325 15.0469 122.858 15.3203C123.396 15.5892 123.811 15.9629 124.103 16.4414C124.394 16.9199 124.579 17.4668 124.656 18.082H122.975C122.92 17.7357 122.813 17.4258 122.653 17.1523C122.498 16.8789 122.275 16.6647 121.983 16.5098C121.696 16.3503 121.323 16.2705 120.862 16.2705C120.466 16.2705 120.117 16.3457 119.816 16.4961C119.516 16.6465 119.265 16.8675 119.064 17.1592C118.868 17.4508 118.72 17.8063 118.62 18.2256C118.52 18.6449 118.47 19.1234 118.47 19.6611V20.3652C118.47 20.9121 118.527 21.3975 118.641 21.8213C118.759 22.2451 118.928 22.6029 119.146 22.8945C119.37 23.1862 119.641 23.4072 119.96 23.5576C120.279 23.7035 120.639 23.7764 121.04 23.7764C121.432 23.7764 121.753 23.7445 122.004 23.6807C122.255 23.6123 122.453 23.5326 122.599 23.4414C122.749 23.3457 122.865 23.2546 122.947 23.168V21.1924H120.876V19.9141H124.656ZM126.078 21.3838V21.2266C126.078 20.6934 126.156 20.1989 126.311 19.7432C126.465 19.2829 126.689 18.8841 126.98 18.5469C127.277 18.2051 127.637 17.9408 128.061 17.7539C128.489 17.5625 128.972 17.4668 129.51 17.4668C130.052 17.4668 130.535 17.5625 130.959 17.7539C131.387 17.9408 131.75 18.2051 132.046 18.5469C132.342 18.8841 132.568 19.2829 132.723 19.7432C132.878 20.1989 132.955 20.6934 132.955 21.2266V21.3838C132.955 21.917 132.878 22.4115 132.723 22.8672C132.568 23.3229 132.342 23.7217 132.046 24.0635C131.75 24.4007 131.39 24.665 130.966 24.8564C130.542 25.0433 130.061 25.1367 129.523 25.1367C128.981 25.1367 128.496 25.0433 128.067 24.8564C127.644 24.665 127.284 24.4007 126.987 24.0635C126.691 23.7217 126.465 23.3229 126.311 22.8672C126.156 22.4115 126.078 21.917 126.078 21.3838ZM127.726 21.2266V21.3838C127.726 21.7165 127.76 22.0309 127.828 22.3271C127.896 22.6234 128.004 22.8831 128.149 23.1064C128.295 23.3298 128.482 23.5052 128.71 23.6328C128.938 23.7604 129.209 23.8242 129.523 23.8242C129.829 23.8242 130.093 23.7604 130.316 23.6328C130.544 23.5052 130.731 23.3298 130.877 23.1064C131.023 22.8831 131.13 22.6234 131.198 22.3271C131.271 22.0309 131.308 21.7165 131.308 21.3838V21.2266C131.308 20.8984 131.271 20.5885 131.198 20.2969C131.13 20.0007 131.021 19.7386 130.87 19.5107C130.724 19.2829 130.537 19.1051 130.31 18.9775C130.086 18.8454 129.82 18.7793 129.51 18.7793C129.2 18.7793 128.931 18.8454 128.703 18.9775C128.48 19.1051 128.295 19.2829 128.149 19.5107C128.004 19.7386 127.896 20.0007 127.828 20.2969C127.76 20.5885 127.726 20.8984 127.726 21.2266ZM134.021 21.3838V21.2266C134.021 20.6934 134.099 20.1989 134.254 19.7432C134.409 19.2829 134.632 18.8841 134.924 18.5469C135.22 18.2051 135.58 17.9408 136.004 17.7539C136.432 17.5625 136.915 17.4668 137.453 17.4668C137.995 17.4668 138.479 17.5625 138.902 17.7539C139.331 17.9408 139.693 18.2051 139.989 18.5469C140.285 18.8841 140.511 19.2829 140.666 19.7432C140.821 20.1989 140.898 20.6934 140.898 21.2266V21.3838C140.898 21.917 140.821 22.4115 140.666 22.8672C140.511 23.3229 140.285 23.7217 139.989 24.0635C139.693 24.4007 139.333 24.665 138.909 24.8564C138.485 25.0433 138.005 25.1367 137.467 25.1367C136.924 25.1367 136.439 25.0433 136.011 24.8564C135.587 24.665 135.227 24.4007 134.931 24.0635C134.634 23.7217 134.409 23.3229 134.254 22.8672C134.099 22.4115 134.021 21.917 134.021 21.3838ZM135.669 21.2266V21.3838C135.669 21.7165 135.703 22.0309 135.771 22.3271C135.84 22.6234 135.947 22.8831 136.093 23.1064C136.239 23.3298 136.425 23.5052 136.653 23.6328C136.881 23.7604 137.152 23.8242 137.467 23.8242C137.772 23.8242 138.036 23.7604 138.26 23.6328C138.488 23.5052 138.674 23.3298 138.82 23.1064C138.966 22.8831 139.073 22.6234 139.142 22.3271C139.215 22.0309 139.251 21.7165 139.251 21.3838V21.2266C139.251 20.8984 139.215 20.5885 139.142 20.2969C139.073 20.0007 138.964 19.7386 138.813 19.5107C138.668 19.2829 138.481 19.1051 138.253 18.9775C138.03 18.8454 137.763 18.7793 137.453 18.7793C137.143 18.7793 136.874 18.8454 136.646 18.9775C136.423 19.1051 136.239 19.2829 136.093 19.5107C135.947 19.7386 135.84 20.0007 135.771 20.2969C135.703 20.5885 135.669 20.8984 135.669 21.2266ZM147.017 17.6035H148.514V24.7949C148.514 25.4603 148.372 26.0254 148.09 26.4902C147.807 26.9551 147.413 27.3083 146.907 27.5498C146.401 27.7959 145.816 27.9189 145.15 27.9189C144.868 27.9189 144.553 27.8779 144.207 27.7959C143.865 27.7139 143.533 27.5817 143.209 27.3994C142.89 27.2217 142.623 26.987 142.409 26.6953L143.182 25.7246C143.446 26.0391 143.738 26.2692 144.057 26.415C144.376 26.5609 144.711 26.6338 145.062 26.6338C145.44 26.6338 145.761 26.5632 146.025 26.4219C146.294 26.2852 146.502 26.0824 146.647 25.8135C146.793 25.5446 146.866 25.2165 146.866 24.8291V19.2783L147.017 17.6035ZM141.992 21.3838V21.2402C141.992 20.6797 142.061 20.1693 142.197 19.709C142.334 19.2441 142.53 18.8454 142.785 18.5127C143.04 18.1755 143.35 17.918 143.715 17.7402C144.079 17.5579 144.492 17.4668 144.952 17.4668C145.431 17.4668 145.839 17.5534 146.176 17.7266C146.518 17.8997 146.802 18.1481 147.03 18.4717C147.258 18.7907 147.436 19.1735 147.563 19.6201C147.696 20.0622 147.794 20.5544 147.857 21.0967V21.5547C147.798 22.0833 147.698 22.5664 147.557 23.0039C147.415 23.4414 147.229 23.8197 146.996 24.1387C146.764 24.4577 146.477 24.7038 146.135 24.877C145.798 25.0501 145.399 25.1367 144.938 25.1367C144.487 25.1367 144.079 25.0433 143.715 24.8564C143.355 24.6696 143.045 24.4076 142.785 24.0703C142.53 23.7331 142.334 23.3366 142.197 22.8809C142.061 22.4206 141.992 21.9215 141.992 21.3838ZM143.64 21.2402V21.3838C143.64 21.721 143.672 22.0355 143.735 22.3271C143.804 22.6188 143.906 22.8763 144.043 23.0996C144.184 23.3184 144.362 23.4915 144.576 23.6191C144.795 23.7422 145.052 23.8037 145.349 23.8037C145.736 23.8037 146.053 23.7217 146.299 23.5576C146.549 23.3936 146.741 23.1725 146.873 22.8945C147.01 22.612 147.105 22.2975 147.16 21.9512V20.7139C147.133 20.445 147.076 20.1943 146.989 19.9619C146.907 19.7295 146.796 19.5267 146.654 19.3535C146.513 19.1758 146.335 19.0391 146.121 18.9434C145.907 18.8431 145.654 18.793 145.362 18.793C145.066 18.793 144.809 18.8568 144.59 18.9844C144.371 19.112 144.191 19.2874 144.05 19.5107C143.913 19.734 143.811 19.9938 143.742 20.29C143.674 20.5863 143.64 20.903 143.64 21.2402ZM151.986 14.5V25H150.332V14.5H151.986ZM157.052 25.1367C156.505 25.1367 156.01 25.0479 155.568 24.8701C155.131 24.6878 154.757 24.4349 154.447 24.1113C154.142 23.7878 153.907 23.4072 153.743 22.9697C153.579 22.5322 153.497 22.0605 153.497 21.5547V21.2812C153.497 20.7025 153.581 20.1784 153.75 19.709C153.919 19.2396 154.153 18.8385 154.454 18.5059C154.755 18.1686 155.11 17.9111 155.521 17.7334C155.931 17.5557 156.375 17.4668 156.854 17.4668C157.382 17.4668 157.845 17.5557 158.241 17.7334C158.638 17.9111 158.966 18.1618 159.226 18.4854C159.49 18.8044 159.686 19.1849 159.813 19.627C159.946 20.069 160.012 20.5566 160.012 21.0898V21.7939H154.297V20.6113H158.385V20.4814C158.376 20.1852 158.316 19.9072 158.207 19.6475C158.102 19.3877 157.94 19.1781 157.722 19.0186C157.503 18.859 157.211 18.7793 156.847 18.7793C156.573 18.7793 156.329 18.8385 156.115 18.957C155.906 19.071 155.73 19.2373 155.589 19.4561C155.448 19.6748 155.338 19.9391 155.261 20.249C155.188 20.5544 155.151 20.8984 155.151 21.2812V21.5547C155.151 21.8783 155.195 22.179 155.281 22.457C155.372 22.7305 155.505 22.9697 155.678 23.1748C155.851 23.3799 156.061 23.5417 156.307 23.6602C156.553 23.7741 156.833 23.8311 157.147 23.8311C157.544 23.8311 157.897 23.7513 158.207 23.5918C158.517 23.4323 158.786 23.2067 159.014 22.915L159.882 23.7559C159.722 23.9883 159.515 24.2116 159.26 24.4258C159.005 24.6354 158.692 24.8063 158.323 24.9385C157.959 25.0706 157.535 25.1367 157.052 25.1367Z" fill="#1F1F1F"/>
</svg>
